<svg xmlns="http://www.w3.org/2000/svg" width="24" height="24" viewBox="0 0 24 24" fill="none"><g clip-path="url(#clip0_727_6689)"><g clip-path="url(#clip1_727_6689)"><path d="M18 4H6C5.46957 4 4.96086 4.21071 4.58579 4.58579C4.21071 4.96086 4 5.46957 4 6V18C4 18.5304 4.21071 19.0391 4.58579 19.4142C4.96086 19.7893 5.46957 20 6 20H18C18.5304 20 19.0391 19.7893 19.4142 19.4142C19.7893 19.0391 20 18.5304 20 18V6C20 5.46957 19.7893 4.96086 19.4142 4.58579C19.0391 4.21071 18.5304 4 18 4ZM5 7.857C5 7.384 5.448 7 6 7H18C18.552 7 19 7.384 19 7.857V18.143C19 18.616 18.552 19 18 19H6C5.448 19 5 18.616 5 18.143V7.857Z" fill="#1A1A1A"></path><path d="M10.5 11C10.7652 11 11.0196 10.8946 11.2071 10.7071C11.3946 10.5196 11.5 10.2652 11.5 10C11.5 9.73478 11.3946 9.48043 11.2071 9.29289C11.0196 9.10536 10.7652 9 10.5 9C10.2348 9 9.98043 9.10536 9.79289 9.29289C9.60536 9.48043 9.5 9.73478 9.5 10C9.5 10.2652 9.60536 10.5196 9.79289 10.7071C9.98043 10.8946 10.2348 11 10.5 11ZM13.5 11C13.7652 11 14.0196 10.8946 14.2071 10.7071C14.3946 10.5196 14.5 10.2652 14.5 10C14.5 9.73478 14.3946 9.48043 14.2071 9.29289C14.0196 9.10536 13.7652 9 13.5 9C13.2348 9 12.9804 9.10536 12.7929 9.29289C12.6054 9.48043 12.5 9.73478 12.5 10C12.5 10.2652 12.6054 10.5196 12.7929 10.7071C12.9804 10.8946 13.2348 11 13.5 11ZM16.5 11C16.7652 11 17.0196 10.8946 17.2071 10.7071C17.3946 10.5196 17.5 10.2652 17.5 10C17.5 9.73478 17.3946 9.48043 17.2071 9.29289C17.0196 9.10536 16.7652 9 16.5 9C16.2348 9 15.9804 9.10536 15.7929 9.29289C15.6054 9.48043 15.5 9.73478 15.5 10C15.5 10.2652 15.6054 10.5196 15.7929 10.7071C15.9804 10.8946 16.2348 11 16.5 11ZM7.5 14C7.76522 14 8.01957 13.8946 8.20711 13.7071C8.39464 13.5196 8.5 13.2652 8.5 13C8.5 12.7348 8.39464 12.4804 8.20711 12.2929C8.01957 12.1054 7.76522 12 7.5 12C7.23478 12 6.98043 12.1054 6.79289 12.2929C6.60536 12.4804 6.5 12.7348 6.5 13C6.5 13.2652 6.60536 13.5196 6.79289 13.7071C6.98043 13.8946 7.23478 14 7.5 14ZM10.5 14C10.7652 14 11.0196 13.8946 11.2071 13.7071C11.3946 13.5196 11.5 13.2652 11.5 13C11.5 12.7348 11.3946 12.4804 11.2071 12.2929C11.0196 12.1054 10.7652 12 10.5 12C10.2348 12 9.98043 12.1054 9.79289 12.2929C9.60536 12.4804 9.5 12.7348 9.5 13C9.5 13.2652 9.60536 13.5196 9.79289 13.7071C9.98043 13.8946 10.2348 14 10.5 14ZM13.5 14C13.7652 14 14.0196 13.8946 14.2071 13.7071C14.3946 13.5196 14.5 13.2652 14.5 13C14.5 12.7348 14.3946 12.4804 14.2071 12.2929C14.0196 12.1054 13.7652 12 13.5 12C13.2348 12 12.9804 12.1054 12.7929 12.2929C12.6054 12.4804 12.5 12.7348 12.5 13C12.5 13.2652 12.6054 13.5196 12.7929 13.7071C12.9804 13.8946 13.2348 14 13.5 14ZM16.5 14C16.7652 14 17.0196 13.8946 17.2071 13.7071C17.3946 13.5196 17.5 13.2652 17.5 13C17.5 12.7348 17.3946 12.4804 17.2071 12.2929C17.0196 12.1054 16.7652 12 16.5 12C16.2348 12 15.9804 12.1054 15.7929 12.2929C15.6054 12.4804 15.5 12.7348 15.5 13C15.5 13.2652 15.6054 13.5196 15.7929 13.7071C15.9804 13.8946 16.2348 14 16.5 14ZM7.5 17C7.76522 17 8.01957 16.8946 8.20711 16.7071C8.39464 16.5196 8.5 16.2652 8.5 16C8.5 15.7348 8.39464 15.4804 8.20711 15.2929C8.01957 15.1054 7.76522 15 7.5 15C7.23478 15 6.98043 15.1054 6.79289 15.2929C6.60536 15.4804 6.5 15.7348 6.5 16C6.5 16.2652 6.60536 16.5196 6.79289 16.7071C6.98043 16.8946 7.23478 17 7.5 17ZM10.5 17C10.7652 17 11.0196 16.8946 11.2071 16.7071C11.3946 16.5196 11.5 16.2652 11.5 16C11.5 15.7348 11.3946 15.4804 11.2071 15.2929C11.0196 15.1054 10.7652 15 10.5 15C10.2348 15 9.98043 15.1054 9.79289 15.2929C9.60536 15.4804 9.5 15.7348 9.5 16C9.5 16.2652 9.60536 16.5196 9.79289 16.7071C9.98043 16.8946 10.2348 17 10.5 17ZM13.5 17C13.7652 17 14.0196 16.8946 14.2071 16.7071C14.3946 16.5196 14.5 16.2652 14.5 16C14.5 15.7348 14.3946 15.4804 14.2071 15.2929C14.0196 15.1054 13.7652 15 13.5 15C13.2348 15 12.9804 15.1054 12.7929 15.2929C12.6054 15.4804 12.5 15.7348 12.5 16C12.5 16.2652 12.6054 16.5196 12.7929 16.7071C12.9804 16.8946 13.2348 17 13.5 17Z" fill="#1A1A1A"></path></g></g><defs><clipPath id="clip0_727_6689"><rect width="24" height="24" fill="white"></rect></clipPath><clipPath id="clip1_727_6689"><rect width="16" height="16" fill="white" transform="translate(4 4)"></rect></clipPath></defs></svg>