<svg xmlns="http://www.w3.org/2000/svg" width="50" height="50" viewBox="0 0 50 50" fill="none"><path d="M33.4424 3.7229L35.4549 4.26665C37.916 4.93265 40.1596 6.23227 41.9617 8.0359C43.7639 9.83952 45.0617 12.0841 45.7257 14.5458L46.2674 16.5562L42.2465 17.6417L41.7028 15.6312C41.2283 13.8728 40.3011 12.2696 39.0136 10.9814C37.7261 9.69318 36.1234 8.76505 34.3653 8.28957L32.3549 7.74373L33.4424 3.7229ZM2.08403 4.16665H19.959L23.057 18.1042L19.182 21.9792C21.4593 25.5259 24.4743 28.5401 28.0215 30.8167L31.8965 26.9437L45.834 30.0417V47.9167H43.7507C35.7307 47.9291 27.8791 45.6163 21.1465 41.2583C16.1825 38.0456 11.955 33.8182 8.74237 28.8542C4.38445 22.1215 2.07167 14.2699 2.08403 6.24998V4.16665ZM6.30695 8.33332C6.65743 14.8332 8.70377 21.1281 12.2424 26.5917C15.1348 31.0602 18.9405 34.8659 23.409 37.7583C28.8725 41.2971 35.1674 43.3434 41.6674 43.6937V33.3833L33.2236 31.5083L28.6945 36.0396L27.3132 35.2542C22.0689 32.2736 17.7271 27.9318 14.7465 22.6875L13.9611 21.3062L18.4924 16.7771L16.6174 8.33332H6.30695ZM31.5382 10.7604L33.5507 11.3042C34.7813 11.6371 35.9031 12.287 36.8041 13.1888C37.7052 14.0906 38.3541 15.2129 38.6861 16.4437L39.2278 18.4542L35.207 19.5396L34.6632 17.5292C34.5207 17.0016 34.2424 16.5207 33.856 16.1343C33.4696 15.7479 32.9887 15.4695 32.4611 15.3271L30.4507 14.7833L31.5382 10.7604Z" fill="#F84343"></path></svg>