<svg xmlns="http://www.w3.org/2000/svg" width="50" height="50" viewBox="0 0 50 50" fill="none"><path d="M46.8753 21.8749C46.8722 18.9751 45.7189 16.1949 43.6683 14.1444C41.6178 12.0939 38.8376 10.9405 35.9378 10.9374C35.5921 10.9374 35.2464 10.957 34.9046 10.9882C34.0227 9.10595 32.6227 7.51396 30.8686 6.39871C29.1145 5.28347 27.0789 4.69116 25.0003 4.69116C22.9217 4.69116 20.8861 5.28347 19.132 6.39871C17.3779 7.51396 15.9779 9.10595 15.096 10.9882C14.7542 10.957 14.4085 10.9374 14.0628 10.9374C11.5799 10.938 9.17117 11.7834 7.23246 13.3345C5.29375 14.8856 3.94047 17.0502 3.39508 19.4724C2.84969 21.8946 3.14465 24.4303 4.23147 26.6626C5.3183 28.895 7.1323 30.6911 9.37529 31.7558V40.6249C9.37529 41.4537 9.70453 42.2486 10.2906 42.8346C10.8766 43.4207 11.6715 43.7499 12.5003 43.7499H37.5003C38.3291 43.7499 39.1239 43.4207 39.71 42.8346C40.296 42.2486 40.6253 41.4537 40.6253 40.6249V31.7558C42.4938 30.8671 44.0725 29.4675 45.1786 27.7188C46.2847 25.9702 46.873 23.944 46.8753 21.8749ZM37.5003 40.6249H12.5003V32.6991C13.0177 32.7745 13.5399 32.8124 14.0628 32.8124H35.9378C36.4607 32.8124 36.9829 32.7745 37.5003 32.6991V40.6249ZM35.9378 29.6874H33.2522L34.3284 25.3788C34.421 24.9797 34.353 24.5601 34.1392 24.2106C33.9254 23.861 33.5828 23.6094 33.1853 23.5101C32.7877 23.4107 32.3671 23.4714 32.0139 23.6792C31.6607 23.887 31.4033 24.2253 31.2972 24.621L30.0296 29.6874H26.5628V24.9999C26.5628 24.5855 26.3982 24.1881 26.1051 23.8951C25.8121 23.602 25.4147 23.4374 25.0003 23.4374C24.5859 23.4374 24.1885 23.602 23.8954 23.8951C23.6024 24.1881 23.4378 24.5855 23.4378 24.9999V29.6874H19.971L18.7034 24.621C18.6566 24.4189 18.5699 24.2282 18.4486 24.06C18.3272 23.8917 18.1736 23.7493 17.9966 23.6411C17.8197 23.5328 17.6229 23.4609 17.4179 23.4295C17.2128 23.3981 17.0036 23.4078 16.8023 23.4581C16.6011 23.5084 16.4119 23.5983 16.2457 23.7225C16.0796 23.8467 15.9398 24.0028 15.8346 24.1816C15.7294 24.3603 15.6609 24.5583 15.633 24.7639C15.6051 24.9694 15.6184 25.1785 15.6722 25.3788L16.7483 29.6874H14.0628C11.9908 29.6874 10.0036 28.8643 8.53852 27.3992C7.07339 25.9341 6.25029 23.9469 6.25029 21.8749C6.25029 19.8029 7.07339 17.8158 8.53852 16.3507C10.0036 14.8855 11.9908 14.0624 14.0628 14.0624H14.1761C14.1005 14.5798 14.0626 15.102 14.0628 15.6249C14.0628 16.0393 14.2274 16.4368 14.5204 16.7298C14.8135 17.0228 15.2109 17.1874 15.6253 17.1874C16.0397 17.1874 16.4371 17.0228 16.7301 16.7298C17.0232 16.4368 17.1878 16.0393 17.1878 15.6249C17.1878 13.5529 18.0109 11.5658 19.476 10.1007C20.9411 8.63553 22.9283 7.81243 25.0003 7.81243C27.0723 7.81243 29.0594 8.63553 30.5246 10.1007C31.9897 11.5658 32.8128 13.5529 32.8128 15.6249C32.8128 16.0393 32.9774 16.4368 33.2704 16.7298C33.5635 17.0228 33.9609 17.1874 34.3753 17.1874C34.7897 17.1874 35.1871 17.0228 35.4801 16.7298C35.7732 16.4368 35.9378 16.0393 35.9378 15.6249C35.938 15.102 35.9001 14.5798 35.8245 14.0624H35.9378C38.0098 14.0624 39.9969 14.8855 41.4621 16.3507C42.9272 17.8158 43.7503 19.8029 43.7503 21.8749C43.7503 23.9469 42.9272 25.9341 41.4621 27.3992C39.9969 28.8643 38.0098 29.6874 35.9378 29.6874Z" fill="white"></path></svg>