<svg xmlns="http://www.w3.org/2000/svg" width="50" height="50" viewBox="0 0 50 50" fill="none"><path d="M2.08301 45.8333C2.08301 46.9583 3.02051 47.9166 4.16634 47.9166H31.2497C32.4163 47.9166 33.333 46.9583 33.333 45.8333V43.7499H2.08301V45.8333ZM17.708 18.7499C9.89551 18.7499 2.08301 22.9166 2.08301 31.2499H33.333C33.333 22.9166 25.5205 18.7499 17.708 18.7499ZM7.54134 27.0833C9.85384 23.8541 14.7705 22.9166 17.708 22.9166C20.6455 22.9166 25.5622 23.8541 27.8747 27.0833H7.54134ZM2.08301 35.4166H33.333V39.5833H2.08301V35.4166ZM37.4997 10.4166V2.08325H33.333V10.4166H22.9163L23.3955 14.5833H43.3122L40.3955 43.7499H37.4997V47.9166H41.083C42.833 47.9166 44.2705 46.5624 44.4788 44.8541L47.9163 10.4166H37.4997Z" fill="white"></path></svg>