<svg xmlns="http://www.w3.org/2000/svg" width="50" height="50" viewBox="0 0 50 50" fill="none"><g clip-path="url(#clip0_682_3358)"><path d="M25 1.66661L25.7467 0.176611C25.5149 0.0604725 25.2592 0 25 0C24.7408 0 24.4851 0.0604725 24.2533 0.176611L25 1.66661ZM15 28.3333V26.6666H13.3333V28.3333H15ZM28.3333 28.3333H30V26.6666H28.3333V28.3333ZM0 49.9999H50V46.6666H0V49.9999ZM24.2533 0.176611L4.25333 10.1766L5.74667 13.1566L25.7467 3.15661L24.2533 0.176611ZM0 19.9999H50V16.6666H0V19.9999ZM45.7467 10.1766L25.7467 0.176611L24.2533 3.15661L44.2533 13.1566L45.7467 10.1766ZM3.33333 18.3333V48.3333H6.66667V18.3333H3.33333ZM43.3333 18.3333V48.3333H46.6667V18.3333H43.3333ZM16.6667 48.3333V28.3333H13.3333V48.3333H16.6667ZM15 29.9999H28.3333V26.6666H15V29.9999ZM26.6667 28.3333V48.3333H30V28.3333H26.6667Z" fill="white"></path></g><defs><clipPath id="clip0_682_3358"><rect width="50" height="50" fill="white"></rect></clipPath></defs></svg>