<svg xmlns="http://www.w3.org/2000/svg" width="50" height="50" viewBox="0 0 50 50" fill="none"><path d="M45.1696 30.8886L38.886 26.7773L41.3054 22.3419C41.8889 21.2344 42.1946 20.0017 42.1962 18.7499V11.7187C42.201 9.74162 41.6284 7.80619 40.5487 6.15004C39.4689 4.49389 37.929 3.18912 36.1181 2.39594C34.3071 1.60275 32.3039 1.3557 30.3545 1.6851C28.4051 2.0145 26.5943 2.90603 25.1445 4.2502L27.2684 6.54287C28.2729 5.61404 29.5267 4.99852 30.876 4.77178C32.2253 4.54505 33.6114 4.71695 34.8644 5.26642C36.1174 5.81589 37.1828 6.71904 37.9301 7.86514C38.6773 9.01124 39.0739 10.3505 39.0712 11.7187V18.7499C39.0709 19.4788 38.8963 20.1971 38.5619 20.8448L34.7615 27.8124L43.4586 33.5032C44.0327 33.8789 44.5038 34.3922 44.8291 34.9963C45.1544 35.6004 45.3235 36.2762 45.3212 36.9623V42.1874H38.2899V45.3124H48.4462V36.9622C48.4493 35.757 48.1513 34.5701 47.579 33.5094C47.0068 32.4487 46.1786 31.5478 45.1696 30.8886Z" fill="white"></path><path d="M31.1075 34.0136L24.824 29.9023L27.2433 25.4669C27.8268 24.3594 28.1325 23.1267 28.1341 21.8749V14.8437C28.1321 12.1486 27.0611 9.56432 25.1561 7.65787C23.2511 5.75141 20.6677 4.67843 17.9727 4.67432C12.3753 4.67432 7.82158 9.23633 7.82158 14.8437V21.8749C7.81562 23.1261 8.11798 24.3596 8.70195 25.4662L11.1344 29.9256L4.8874 34.0136C3.8796 34.6717 3.0521 35.5712 2.48 36.6302C1.9079 37.6892 1.60931 38.8744 1.61133 40.078L1.5625 48.4374H34.3841V40.0872C34.3872 38.882 34.0891 37.6951 33.5169 36.6344C32.9447 35.5737 32.1165 34.6728 31.1075 34.0136ZM31.2591 45.3124H4.70566L4.73594 40.0872C4.73358 39.4011 4.90273 38.7253 5.22802 38.1212C5.55331 37.5171 6.02442 37.0038 6.59853 36.6281L15.2589 30.9612L11.4453 23.9698C11.1147 23.3212 10.9437 22.603 10.9466 21.8749V14.8437C10.9466 12.9788 11.6874 11.1904 13.006 9.87181C14.3246 8.55319 16.113 7.8124 17.9778 7.8124C19.8426 7.8124 21.6311 8.55319 22.9497 9.87181C24.2683 11.1904 25.0091 12.9788 25.0091 14.8437V21.8749C25.0088 22.6038 24.8342 23.3221 24.4998 23.9698L20.6994 30.9374L29.3965 36.6282C29.9706 37.0039 30.4417 37.5172 30.767 38.1213C31.0923 38.7254 31.2614 39.4012 31.2591 40.0873V45.3124Z" fill="white"></path></svg>