<svg xmlns="http://www.w3.org/2000/svg" width="51" height="50" viewBox="0 0 51 50" fill="none"><path fill-rule="evenodd" clip-rule="evenodd" d="M15.7715 20.8333C15.7715 18.2087 16.8141 15.6917 18.6699 13.8359C20.5257 11.98 23.0428 10.9374 25.6673 10.9374C28.2919 10.9374 30.8089 11.98 32.6647 13.8359C34.5206 15.6917 35.5632 18.2087 35.5632 20.8333C35.5632 23.4578 34.5206 25.9749 32.6647 27.8307C30.8089 29.6865 28.2919 30.7291 25.6673 30.7291C23.0428 30.7291 20.5257 29.6865 18.6699 27.8307C16.8141 25.9749 15.7715 23.4578 15.7715 20.8333ZM25.6673 14.0624C23.8716 14.0624 22.1494 14.7758 20.8796 16.0456C19.6098 17.3153 18.8965 19.0375 18.8965 20.8333C18.8965 22.629 19.6098 24.3512 20.8796 25.621C22.1494 26.8908 23.8716 27.6041 25.6673 27.6041C27.4631 27.6041 29.1852 26.8908 30.455 25.621C31.7248 24.3512 32.4382 22.629 32.4382 20.8333C32.4382 19.0375 31.7248 17.3153 30.455 16.0456C29.1852 14.7758 27.4631 14.0624 25.6673 14.0624Z" fill="#F84343"></path><path fill-rule="evenodd" clip-rule="evenodd" d="M8.00928 18.4519C8.36538 14.1328 10.3327 10.1054 13.5206 7.16957C16.7084 4.2337 20.8838 2.60399 25.2176 2.604H26.1176C30.4514 2.60399 34.6268 4.2337 37.8147 7.16957C41.0026 10.1054 42.9699 14.1328 43.3259 18.4519C43.7222 23.2629 42.2359 28.04 39.1801 31.7769L29.1947 43.9873C28.7674 44.5099 28.2293 44.931 27.6193 45.2202C27.0093 45.5093 26.3427 45.6593 25.6676 45.6593C24.9926 45.6593 24.3259 45.5093 23.716 45.2202C23.106 44.931 22.5679 44.5099 22.1405 43.9873L12.1551 31.7769C9.09911 28.0401 7.61279 23.263 8.00928 18.4519ZM25.2176 5.729C21.6686 5.72954 18.2496 7.06448 15.6391 9.46884C13.0287 11.8732 11.4177 15.1712 11.1259 18.7082C10.7959 22.712 12.0328 26.6877 14.5759 29.7978L24.5614 42.0103C24.6956 42.1745 24.8647 42.3069 25.0564 42.3978C25.248 42.4888 25.4575 42.5359 25.6697 42.5359C25.8819 42.5359 26.0914 42.4888 26.283 42.3978C26.4747 42.3069 26.6438 42.1745 26.778 42.0103L36.7635 29.7978C39.3051 26.6871 40.5404 22.7115 40.2093 18.7082C39.9175 15.1708 38.3062 11.8725 35.6953 9.46813C33.0845 7.06372 29.6649 5.72902 26.1155 5.729H25.2176Z" fill="#F84343"></path></svg>